<svg data-name="Layer 1" xmlns="http://www.w3.org/2000/svg" viewBox="0 0 58.41 46.98"><defs><style>.cls-1{fill:#3bbadb;}.cls-2{fill:#fff;}</style></defs><path class="cls-1" d="M25.51,8.29a6.34,6.34,0,1,0-6.34,6.34A6.35,6.35,0,0,0,25.51,8.29Z"/><path class="cls-2" d="M19.17,15.63a7.35,7.35,0,1,1,7.34-7.34A7.34,7.34,0,0,1,19.17,15.63Zm0-12.69a5.35,5.35,0,1,0,5.34,5.35A5.35,5.35,0,0,0,19.17,2.94Z"/><path class="cls-1" d="M19.17,35.87a21.22,21.22,0,0,0,17.76-9.6,19.37,19.37,0,0,0-35.52,0A21.22,21.22,0,0,0,19.17,35.87Z"/><path class="cls-2" d="M19.17,36.87a22.22,22.22,0,0,1-18.6-10l-.29-.46.21-.49a20.37,20.37,0,0,1,37.36,0l.21.49-.29.46A22.22,22.22,0,0,1,19.17,36.87ZM2.55,26.17a20.22,20.22,0,0,0,33.24,0,18.37,18.37,0,0,0-33.24,0Z"/><path class="cls-1" d="M44.93,17.9a6.34,6.34,0,1,0-6.34,6.35A6.34,6.34,0,0,0,44.93,17.9Z"/><path class="cls-2" d="M38.59,25.25a7.35,7.35,0,1,1,7.34-7.35A7.35,7.35,0,0,1,38.59,25.25Zm0-12.69a5.35,5.35,0,1,0,5.34,5.34A5.34,5.34,0,0,0,38.59,12.56Z"/><path class="cls-1" d="M38.59,45.49a21.23,21.23,0,0,0,17.76-9.61,19.38,19.38,0,0,0-35.52,0A21.23,21.23,0,0,0,38.59,45.49Z"/><path class="cls-2" d="M38.59,46.49A22.2,22.2,0,0,1,20,36.43L19.7,36l.21-.5a20.37,20.37,0,0,1,37.35,0l.22.5-.3.45A22.17,22.17,0,0,1,38.59,46.49ZM22,35.78a20.21,20.21,0,0,0,33.24,0,18.38,18.38,0,0,0-33.24,0Z"/></svg>